<?xml version="1.0" encoding="utf-8"?>
<!-- Generator: Adobe Illustrator 24.2.1, SVG Export Plug-In . SVG Version: 6.00 Build 0)  -->
<svg version="1.1" id="reliance" xmlns="http://www.w3.org/2000/svg" xmlns:xlink="http://www.w3.org/1999/xlink" x="0px" y="0px"
	 viewBox="0 0 363.9 159.3" style="enable-background:new 0 0 363.9 159.3;" xml:space="preserve">
<style type="text/css">
	.st0{fill:#2F7ABE;}
	.st1{fill:#EA1D25;}
	.st2{fill:#9DC840;}
</style>
<g>
	<path class="st0" d="M63.7,89.8c1.6,2.6-7.8,4.4-10.4,0L42.4,71.4c-4.5-7.9-8.2-10.9-14.8-10.9h-7.2v27.6c0,5.7-8.8,5.7-8.8,0V17.4
		H34c13,0,22.8,6.6,22.8,19.9c0,10.4-6.5,17.7-16.7,20.2v0.2c5,2.2,7.2,5.6,11.1,12.1L63.7,89.8z M20.4,25.3v27.2h11.9
		c8.8,0,15.3-5.5,15.3-14.5c0-8-5.3-12.7-15.2-12.7H20.4z"/>
	<path class="st0" d="M79.2,67.7c0.3,12,6.8,18.6,17.5,18.6c6,0,11.9-2.1,16.6-5.9c3.1-2.1,4.5,5.6,0,8c-4.7,3.4-10.9,5.1-18.6,5.1
		c-15.1,0-24.3-10.3-24.3-27.8c0-8.4,2.3-15.1,7.1-20.4c4.4-5.1,10.9-8,17.6-7.9c14,0,22.1,9.5,22.1,25.7c0,3.5-2.8,4.5-6.4,4.5
		H79.2z M108.2,60.5c-0.1-9.9-5.2-15.6-13.4-15.6s-14.2,6.3-15.5,15.6H108.2z"/>
	<path class="st0" d="M132,89.5c0,3.9-8.6,4-8.6,0V16.1c0-4,8.6-3.9,8.6,0V89.5z"/>
	<path class="st0" d="M138.4,19.7c0-3.1,2.5-5.6,5.6-5.7c3.1,0,5.6,2.5,5.7,5.6s-2.5,5.6-5.6,5.7c0,0-0.1,0-0.1,0
		c-3,0.1-5.5-2.3-5.6-5.3C138.4,19.8,138.4,19.7,138.4,19.7 M148.2,88.7c0,4.8-8.6,4.5-8.6,0V41.9c0-4.5,8.6-4.1,8.6,0V88.7z"/>
	<path class="st0" d="M198.4,89.3c0,4.3-8.6,4.3-8.6,0V84h-0.2c-3.8,6.4-9.2,9.7-16.5,9.7c-10.7,0-17-6.1-17-15.5
		c0-10,5.9-15.8,17.7-17.5l16.1-2.2c0-9.1-3.6-13.6-11-13.6c-6.4,0-12.6,2.3-17.5,6.5c-3.2,1.2-4.4-6.4,0-8.8
		c5.5-3.4,11.8-5.1,18.2-5c12.5,0,18.9,6.7,18.9,20L198.4,89.3z M189.8,65.3l-13,1.8c-7.8,1-12,3.2-12,10.4c0,5.2,4,8.9,10.3,8.9
		c4,0.1,7.8-1.5,10.5-4.4c2.8-3.1,4.3-7.2,4.2-11.3L189.8,65.3z"/>
	<path class="st0" d="M249.3,89.4c0,3.5-8.6,4.3-8.6,0V61.9c0-11.3-4.2-17-12.4-17c-4.1-0.1-8,1.7-10.7,4.8
		c-2.9,3.4-4.3,7.8-4.2,12.2v27.4c0,4.5-8.6,3.7-8.6,0V42.5c0-4.7,8.6-4.7,8.6,0v5.2h0.2c4.1-6.8,10-10.2,17.6-10.2
		c11.7,0,18.1,7.8,18.1,22.1L249.3,89.4z"/>
	<path class="st0" d="M281.2,93.7c-7.6,0-13.8-2.5-18.5-7.4s-7-11.5-7-19.4c0-8.9,2.5-16,7.5-21.3s11.9-8,20.4-8
		c4.3-0.1,8.6,0.8,12.5,2.6c4.7,1.5,3.3,10.6,0,8.8c-3.7-2.7-8.2-4.2-12.8-4.2c-5.2-0.2-10.1,2-13.5,5.9c-3.5,4-5.2,9.1-5.2,15.4
		c0,12.5,7.1,20.2,18.2,20.2c4.8,0,9.4-1.7,13.2-4.6c3.8-3.2,3.9,6.2,0,8.1C291.4,92.5,286.4,93.8,281.2,93.7"/>
	<path class="st0" d="M314.4,67.7c0.3,12,6.8,18.6,17.5,18.6c6,0,11.9-2.1,16.6-5.9c3.1-2.1,4.5,5.6,0,8c-4.7,3.4-10.9,5.1-18.6,5.1
		c-15.1,0-24.3-10.3-24.3-27.8c0-8.4,2.4-15.1,7.1-20.4c4.4-5.1,10.8-8,17.6-7.9c14,0,22.1,9.5,22.1,25.7c0,3.5-2.8,4.5-6.4,4.5
		L314.4,67.7z M343.4,60.5c-0.1-9.9-5.1-15.6-13.4-15.6s-14.2,6.3-15.5,15.6H343.4z"/>
	<path class="st1" d="M13.2,134.2c-1.6-0.6-1.3-5.1,0-4.3l0.3,0.1c2.2,1.1,4.7,1.7,7.2,1.8c4.9,0,7.3-1.9,7.3-5.3s-3.4-5.2-7.9-7.5
		c-4.8-2.4-8.5-4.7-8.5-9.7c0-6.2,5.9-9.1,11.8-9.1c1.8,0,3.7,0.1,5.5,0.5c2.3,0.6,1.5,4.8,0,4.1c-1.9-0.8-3.9-1.1-5.9-1.1
		c-3.5,0-7.2,1.5-7.2,5.2c0,3.5,2.6,4.8,7.4,7.1c4.9,2.5,9,5.1,9,10.2c0,6.8-5.6,9.2-12.1,9.2c-2.3-0.1-4.6-0.5-6.8-1.1L13.2,134.2z
		"/>
	<path class="st1" d="M55.3,133.6c0,1.6-3.9,1.8-3.9,0V131h-0.1c-1.4,2.8-4.3,4.6-7.5,4.4c-5.8,0-8.7-3.5-8.7-10.4v-13.4
		c0-1.6,3.9-1.7,3.9,0v12.7c0,5.1,1.9,7.7,5.9,7.7s6.5-3.1,6.5-7.6v-12.8c0-1.8,3.9-1.6,3.9,0V133.6z"/>
	<path class="st1" d="M62.1,131.3v13.5c0,1.7-3.9,1.8-3.9,0v-33.1c0-1.5,3.9-1.6,3.9,0v3.1h0.1c1.6-3.1,4.9-5,8.4-4.9
		c6.3,0,10,4.8,10,12c0,4.1-1,7.4-3,9.8c-2,2.4-5,3.8-8.1,3.6C66.5,135.5,63.7,133.9,62.1,131.3L62.1,131.3z M62.1,124.9
		c0,1.9,0.7,3.7,2,5.1c1.3,1.4,3.1,2.2,5,2.1c4.7,0,7.5-3.8,7.5-10.2c0-5.4-2.7-8.7-7-8.7c-2.1-0.1-4.1,0.8-5.5,2.4
		c-1.4,1.6-2.1,3.7-2,5.9L62.1,124.9z"/>
	<path class="st1" d="M87.5,123.6c0.1,5.4,3.1,8.5,7.9,8.5c2.8,0,5.4-0.9,7.6-2.7c1.4-1,2,2.5,0,3.6c-2.5,1.7-5.5,2.5-8.5,2.3
		c-6.9,0-11-4.7-11-12.6c-0.1-3.4,1-6.7,3.2-9.2c2-2.3,4.9-3.6,8-3.6c6.4,0,10,4.3,10,11.7c0,1.6-1.3,2-2.9,2L87.5,123.6z
		 M100.7,120.3c0-4.5-2.3-7.1-6.1-7.1s-6.5,2.9-7.1,7.1H100.7z"/>
	<path class="st1" d="M117.3,113.7c-3.3,0-5.8,3.3-5.8,8.7v11.2c0,1.7-3.9,1.7-3.9,0v-21.7c0-2,3.9-1.8,3.9,0v3.6h0.1
		c1.1-3.4,3.5-5.4,6.4-5.4c0.8,0,1.6,0.1,2.3,0.3c2.3,0.8,0.9,4.8,0,4C119.4,113.8,118.4,113.5,117.3,113.7"/>
	<path class="st1" d="M143.5,124.4l9.7-21.5c0.8-1.8,5.9-3.3,5.9,0v30.3c0,2.3-4,2.1-4,0v-21.2c0-1.5,0.1-3.3,0.2-5.3l-11.7,26.8
		c-0.4,1.1-1.6,1.6-2.6,1.2c-0.6-0.2-1-0.6-1.2-1.2l-11.7-27c0.1,1.4,0.1,3.3,0.1,5.6v21.4c0,1.9-3.8,1.9-3.8,0v-30.6
		c0-3.4,5.2-2.1,6.2,0l9.5,21.6c0.6,1.3,1.2,2.7,1.6,4.1h0.1L143.5,124.4z"/>
	<path class="st1" d="M181.3,133.4c0,1.9-3.9,1.9-3.9,0V131h-0.1c-1.4,2.8-4.4,4.5-7.5,4.4c-4.9,0-7.7-2.8-7.7-7
		c0-4.5,2.7-7.2,8-7.9l7.3-1c0-4.1-1.6-6.2-5-6.2c-2.9,0-5.7,1.1-7.9,3c-1.5,0.5-2-2.9,0-4c2.5-1.5,5.3-2.3,8.3-2.3
		c5.7,0,8.6,3,8.6,9.1L181.3,133.4z M177.4,122.5l-5.9,0.8c-3.6,0.4-5.4,1.5-5.4,4.7c0,2.4,1.8,4,4.7,4c1.8,0,3.5-0.7,4.8-2
		c1.3-1.4,2-3.3,1.9-5.1L177.4,122.5z"/>
	<path class="st1" d="M194,113.7c-3.3,0-5.8,3.3-5.8,8.7v11.2c0,1.7-3.9,1.7-3.9,0v-21.7c0-2,3.9-1.8,3.9,0v3.6h0.1
		c1.1-3.4,3.5-5.4,6.4-5.4c0.8,0,1.6,0.1,2.3,0.3c2.3,0.8,0.9,4.8,0,4C196.1,113.8,195,113.5,194,113.7"/>
	<path class="st1" d="M212,135.3c-4.2,0-6.4-2.4-6.4-7.1v-14.4h-3.2c-1.7,0-1.6-3.3,0-3.3h3.2v-5.9l3.9-1.3v7.2h4.7
		c1.1,0,1.1,3.3,0,3.3h-4.7v13.7c0,3.2,1,4.5,3.6,4.5c0.9,0,1.8-0.2,2.5-0.8c1.1-1,1.7,2.6,0,3.3C214.5,135.1,213.3,135.4,212,135.3
		"/>
	<path class="st2" d="M234.5,122.3c-2-2.2-5.4-5.9-7.4-8.1l-5.3,4.4l13.4,15.1L258,98.5C250.3,105.6,243,114.5,234.5,122.3z"/>
	<path class="st2" d="M276.5,122.3c-2-2.2-5.4-5.9-7.4-8.1l-5.3,4.4l13.4,15.1L300,98.5C292.3,105.6,285,114.5,276.5,122.3z"/>
	<path class="st2" d="M319.5,122.3c-2-2.2-5.4-5.9-7.4-8.1l-5.3,4.4l13.4,15.1c8-12.3,15.6-24.1,22.8-35.2
		C335.3,105.6,328,114.5,319.5,122.3z"/>
</g>
</svg>
