<?xml version="1.0" encoding="utf-8"?>
<!-- Generator: Adobe Illustrator 24.2.1, SVG Export Plug-In . SVG Version: 6.00 Build 0)  -->
<svg version="1.1" id="Layer_1" xmlns="http://www.w3.org/2000/svg" xmlns:xlink="http://www.w3.org/1999/xlink" x="0px" y="0px"
	 viewBox="0 0 500 400" style="enable-background:new 0 0 500 400;" xml:space="preserve">
<style type="text/css">
	.st0{fill:#2F7ABE;}
	.st1{fill:#EA1D25;}
	.st2{fill:#9DC840;}
</style>
<g>
	<path class="st0" d="M131.8,210.2c1.6,2.6-7.8,4.4-10.4,0l-10.9-18.4c-4.5-7.9-8.2-10.9-14.8-10.9h-7.2v27.6c0,5.7-8.8,5.7-8.8,0
		v-70.7h22.4c13,0,22.8,6.6,22.8,19.9c0,10.4-6.5,17.7-16.7,20.2v0.2c5,2.3,7.2,5.6,11.1,12.1L131.8,210.2z M88.5,145.7v27.2h11.9
		c8.8,0,15.3-5.5,15.3-14.5c0-8-5.4-12.7-15.2-12.7H88.5z"/>
	<path class="st0" d="M147.3,188.1c0.3,12,6.7,18.6,17.5,18.6c6,0,11.6-1.9,16.6-5.9c3.1-2.1,4.5,5.6,0,8
		c-4.7,3.4-10.9,5.1-18.6,5.1c-15.1,0-24.3-10.3-24.3-27.9c0-8.4,2.4-15.1,7.1-20.4c4.7-5.2,10.6-7.9,17.6-7.9
		c14,0,22.1,9.5,22.1,25.7c0,3.5-2.8,4.5-6.4,4.5H147.3z M176.3,180.8c-0.1-9.9-5.1-15.6-13.4-15.6c-8.1,0-14.2,6.3-15.5,15.6H176.3
		z"/>
	<path class="st0" d="M200.1,209.9c0,3.9-8.6,4-8.6,0v-73.4c0-4,8.6-3.9,8.6,0V209.9z"/>
	<path class="st0" d="M206.5,140c0-3.1,2.6-5.6,5.6-5.6c3.1,0,5.7,2.5,5.7,5.6c0,3.1-2.6,5.6-5.7,5.6
		C209.1,145.6,206.5,143.3,206.5,140 M216.3,209.1c0,4.8-8.6,4.5-8.6,0v-46.8c0-4.5,8.6-4.1,8.6,0V209.1z"/>
	<path class="st0" d="M266.5,209.6c0,4.3-8.6,4.3-8.6,0v-5.2h-0.2c-3.7,6.4-9.2,9.6-16.5,9.6c-10.7,0-17-6.1-17-15.5
		c0-10,5.9-15.9,17.7-17.5l16.1-2.2c0-9.1-3.6-13.6-11-13.6c-6.4,0-12.2,2.1-17.5,6.5c-3.2,1.2-4.4-6.4,0-8.8c5.2-3.3,11.4-5,18.2-5
		c12.5,0,18.9,6.6,18.9,20V209.6z M257.9,185.6l-13,1.8c-7.8,1-12,3.2-12,10.4c0,5.2,4,8.9,10.3,8.9c4.2,0,7.7-1.5,10.5-4.4
		c2.8-3,4.2-6.7,4.2-11.4V185.6z"/>
	<path class="st0" d="M317.4,209.8c0,3.5-8.6,4.3-8.6,0v-27.5c0-11.4-4.2-17-12.4-17c-4.3,0-7.8,1.6-10.7,4.8
		c-2.8,3.2-4.2,7.3-4.2,12.2v27.4c0,4.5-8.6,3.7-8.6,0v-46.8c0-4.7,8.6-4.7,8.6,0v5.2h0.2c4.1-6.7,10-10.2,17.6-10.2
		c11.7,0,18.1,7.8,18.1,22.1V209.8z"/>
	<path class="st0" d="M349.3,214c-7.6,0-13.8-2.5-18.5-7.4c-4.6-5-7-11.5-7-19.4c0-8.9,2.5-16,7.5-21.3c5-5.4,11.9-8,20.4-8
		c4.7,0,8.9,0.9,12.4,2.7c4.7,1.5,3.3,10.6,0,8.8c-4-2.8-8.2-4.2-12.7-4.2c-5.5,0-10,1.9-13.5,5.9c-3.5,4-5.2,9.1-5.2,15.4
		c0,12.5,7.1,20.2,18.2,20.2c4.6,0,9-1.5,13.2-4.6c3.7-3.2,3.9,6.2,0,8.1C359.8,212.8,355,214,349.3,214"/>
	<path class="st0" d="M382.5,188.1c0.3,12,6.7,18.6,17.5,18.6c6,0,11.6-1.9,16.6-5.9c3.1-2.1,4.5,5.6,0,8
		c-4.7,3.4-10.9,5.1-18.6,5.1c-15.1,0-24.3-10.3-24.3-27.9c0-8.4,2.4-15.1,7.1-20.4c4.7-5.2,10.6-7.9,17.6-7.9
		c14,0,22.1,9.5,22.1,25.7c0,3.5-2.8,4.5-6.4,4.5H382.5z M411.5,180.8c-0.1-9.9-5.1-15.6-13.4-15.6c-8.1,0-14.2,6.3-15.5,15.6H411.5
		z"/>
	<path class="st1" d="M81.2,254.5c-1.6-0.6-1.3-5.1,0-4.3l0.3,0.1c2.2,1.1,5.1,1.8,7.2,1.8c4.9,0,7.3-1.8,7.3-5.3
		c0-3.6-3.4-5.3-7.9-7.5c-4.8-2.4-8.5-4.7-8.5-9.7c0-6.2,5.9-9.1,11.8-9.1c2.2,0,4.1,0.2,5.5,0.5c2.3,0.6,1.5,4.8,0,4.1
		c-1.7-0.7-3.6-1.1-5.9-1.1c-3.6,0-7.2,1.5-7.2,5.2c0,3.5,2.6,4.8,7.4,7.1c4.9,2.5,9,5.1,9,10.2c0,6.8-5.6,9.2-12.1,9.2
		c-1.6,0-4.6-0.5-6.8-1.1L81.2,254.5z"/>
	<path class="st1" d="M123.4,254c0,1.6-3.9,1.7-3.9,0v-2.7h-0.1c-1.6,3-4.1,4.4-7.5,4.4c-5.8,0-8.7-3.5-8.7-10.4V232
		c0-1.6,3.9-1.7,3.9,0v12.7c0,5.1,1.9,7.7,5.9,7.7c3.8,0,6.5-3.1,6.5-7.6V232c0-1.8,3.9-1.6,3.9,0V254z"/>
	<path class="st1" d="M130.2,251.7v13.5c0,1.7-3.9,1.8-3.9,0V232c0-1.5,3.9-1.6,3.9,0v3.1h0.1c1.9-3.3,4.7-4.9,8.4-4.9
		c6.3,0,10,4.8,10,12c0,4.1-1,7.3-3,9.8c-2,2.4-4.7,3.7-8.1,3.7C134.4,255.8,132,254.4,130.2,251.7L130.2,251.7z M130.2,245.3
		c0,2,0.6,3.7,1.9,5.1c1.3,1.4,3,2.1,5,2.1c4.7,0,7.5-3.8,7.5-10.2c0-5.4-2.7-8.7-7-8.7c-2.3,0-4.1,0.8-5.5,2.4
		c-1.4,1.6-2,3.5-2,5.9V245.3z"/>
	<path class="st1" d="M155.6,244c0.1,5.4,3.1,8.5,7.9,8.5c2.7,0,5.3-0.9,7.5-2.7c1.4-1,2,2.5,0,3.6c-2.1,1.6-5,2.3-8.5,2.3
		c-6.9,0-11-4.7-11-12.6c0-3.8,1.1-6.9,3.2-9.2c2.1-2.4,4.8-3.6,8-3.6c6.4,0,10,4.3,10,11.7c0,1.6-1.3,2-2.9,2H155.6z M168.8,240.7
		c0-4.5-2.3-7.1-6.1-7.1c-3.7,0-6.5,2.9-7,7.1H168.8z"/>
	<path class="st1" d="M185.4,234c-3.3,0-5.8,3.4-5.8,8.8V254c0,1.7-3.9,1.7-3.9,0v-21.7c0-2,3.9-1.8,3.9,0v3.6h0.1
		c1.1-3.5,3.5-5.4,6.4-5.4c1,0,1.8,0.1,2.3,0.3c2.3,0.8,0.9,4.8,0,4C187.7,234.3,186.7,234,185.4,234"/>
	<path class="st1" d="M211.6,244.8l9.7-21.5c0.8-1.8,5.9-3.3,5.9,0v30.3c0,2.3-4,2.1-4,0v-21.2c0-1.5,0.1-3.3,0.2-5.3l-11.7,26.7
		c-0.8,1.8-3.1,1.7-3.8,0l-11.7-27c0.1,1.4,0.1,3.3,0.1,5.6v21.4c0,1.9-3.8,1.9-3.8,0v-30.5c0-3.4,5.3-2.1,6.2,0l9.5,21.6
		c0.8,1.8,1.3,3.2,1.6,4.1h0.1L211.6,244.8z"/>
	<path class="st1" d="M249.4,253.8c0,1.9-3.9,1.9-3.9,0v-2.4h-0.1c-1.7,2.9-4.2,4.4-7.5,4.4c-4.9,0-7.7-2.8-7.7-7.1
		c0-4.5,2.7-7.2,8-7.9l7.3-1c0-4.1-1.7-6.2-5-6.2c-2.9,0-5.5,1-7.9,3c-1.5,0.5-2-2.9,0-4c2.4-1.5,5.2-2.3,8.3-2.3
		c5.7,0,8.6,3,8.6,9.1V253.8z M245.5,242.9l-5.9,0.8c-3.5,0.4-5.4,1.5-5.4,4.7c0,2.4,1.8,4,4.7,4c1.9,0,3.5-0.7,4.8-2
		c1.3-1.4,1.9-3.1,1.9-5.2V242.9z"/>
	<path class="st1" d="M262,234c-3.3,0-5.8,3.4-5.8,8.8V254c0,1.7-3.9,1.7-3.9,0v-21.7c0-2,3.9-1.8,3.9,0v3.6h0.1
		c1.1-3.5,3.5-5.4,6.4-5.4c1,0,1.8,0.1,2.3,0.3c2.3,0.8,0.9,4.8,0,4C264.3,234.3,263.3,234,262,234"/>
	<path class="st1" d="M280,255.7c-4.2,0-6.4-2.4-6.4-7.1v-14.4h-3.2c-1.7,0-1.7-3.3,0-3.3h3.2v-5.9l3.9-1.3v7.2h4.7
		c1.1,0,1.1,3.3,0,3.3h-4.7v13.7c0,3.3,1,4.5,3.6,4.5c1,0,1.8-0.2,2.5-0.8c1.1-1,1.7,2.6,0,3.3C282.7,255.5,281.5,255.7,280,255.7"
		/>
	<path class="st2" d="M302.6,242.7c-2-2.2-5.4-5.9-7.4-8.1c-1.9,1.5-3.5,2.9-5.3,4.4c4.5,5.1,8.9,10,13.4,15.2
		c8-12.3,15.6-24.1,22.8-35.2C318.4,226,311.1,234.8,302.6,242.7z"/>
	<path class="st2" d="M344.6,242.7c-2-2.2-5.4-5.9-7.4-8.1c-1.9,1.5-3.5,2.9-5.3,4.4c4.5,5.1,8.9,10,13.4,15.2
		c8-12.3,15.6-24.1,22.8-35.2C360.4,226,353,234.8,344.6,242.7z"/>
	<path class="st2" d="M387.6,242.7c-2-2.2-5.4-5.9-7.4-8.1c-1.9,1.5-3.5,2.9-5.3,4.4c4.5,5.1,8.9,10,13.4,15.2
		c8-12.3,15.6-24.1,22.8-35.2C403.4,226,396.1,234.8,387.6,242.7z"/>
</g>
</svg>
